<svg id="svg" version="1.1" xmlns="http://www.w3.org/2000/svg" xmlns:xlink="http://www.w3.org/1999/xlink" width="400" height="85.46365914786966" viewBox="0, 0, 400,85.46365914786966"><g id="svgg"><path id="path0" d="M231.131 2.025 C 231.013 2.100,230.700 2.163,230.435 2.164 C 229.324 2.170,227.424 3.592,226.750 4.921 C 226.567 5.282,226.323 5.678,226.208 5.801 C 226.094 5.924,226.000 6.122,226.000 6.243 C 226.000 6.363,225.888 6.677,225.751 6.939 C 225.614 7.202,225.502 7.581,225.501 7.782 C 225.500 7.983,225.429 8.191,225.343 8.244 C 225.257 8.297,225.135 8.678,225.074 9.089 C 225.012 9.501,224.902 9.874,224.830 9.919 C 224.757 9.964,224.646 10.375,224.583 10.834 C 224.520 11.292,224.409 11.667,224.337 11.667 C 224.264 11.667,224.154 12.002,224.093 12.413 C 224.031 12.823,223.914 13.200,223.833 13.250 C 223.752 13.300,223.635 13.696,223.572 14.129 C 223.509 14.562,223.401 14.992,223.332 15.083 C 223.262 15.175,223.150 15.512,223.083 15.833 C 223.016 16.154,222.904 16.492,222.833 16.583 C 222.762 16.675,222.652 17.068,222.588 17.457 C 222.524 17.847,222.410 18.203,222.334 18.249 C 222.259 18.296,222.146 18.709,222.083 19.167 C 222.020 19.625,221.910 20.000,221.839 20.000 C 221.768 20.000,221.660 20.375,221.599 20.833 C 221.538 21.292,221.423 21.667,221.343 21.667 C 221.263 21.667,221.146 22.042,221.083 22.500 C 221.020 22.958,220.907 23.371,220.832 23.417 C 220.757 23.464,220.644 23.807,220.581 24.181 C 220.518 24.555,220.362 25.061,220.234 25.305 C 220.106 25.550,220.002 25.952,220.001 26.198 C 220.000 26.445,219.929 26.691,219.843 26.744 C 219.757 26.797,219.635 27.178,219.574 27.589 C 219.512 28.001,219.402 28.374,219.329 28.420 C 219.255 28.465,219.143 28.820,219.079 29.209 C 219.015 29.598,218.904 29.992,218.833 30.083 C 218.762 30.175,218.652 30.568,218.588 30.957 C 218.524 31.347,218.407 31.705,218.328 31.753 C 218.250 31.801,218.134 32.196,218.070 32.629 C 218.006 33.062,217.892 33.457,217.817 33.505 C 217.742 33.554,217.659 33.929,217.632 34.339 L 217.583 35.083 219.002 35.131 C 220.952 35.196,220.994 35.151,221.681 32.250 C 221.768 31.883,221.905 31.433,221.986 31.250 C 222.216 30.725,222.834 28.448,222.834 28.125 C 222.834 27.965,222.908 27.833,223.000 27.833 C 223.092 27.833,223.167 27.706,223.167 27.550 C 223.167 27.394,223.296 26.831,223.454 26.298 L 223.742 25.329 229.746 25.373 L 235.750 25.417 236.031 26.500 C 236.185 27.096,236.398 27.921,236.503 28.333 C 236.609 28.746,236.757 29.233,236.833 29.417 C 236.909 29.600,237.057 30.087,237.162 30.500 C 237.339 31.193,237.610 32.186,237.730 32.583 C 237.758 32.675,237.836 32.975,237.904 33.250 C 238.022 33.734,238.240 34.316,238.496 34.833 C 238.635 35.116,245.430 35.304,245.701 35.032 C 245.848 34.885,245.556 33.208,245.333 32.917 C 245.263 32.825,245.127 32.412,245.030 32.000 C 244.671 30.458,244.473 29.742,244.333 29.479 C 244.254 29.330,244.137 28.917,244.073 28.562 C 244.009 28.207,243.901 27.842,243.833 27.750 C 243.766 27.658,243.656 27.283,243.590 26.917 C 243.524 26.550,243.412 26.175,243.340 26.083 C 243.269 25.992,243.156 25.617,243.090 25.250 C 243.024 24.883,242.911 24.508,242.839 24.417 C 242.768 24.325,242.657 23.895,242.595 23.462 C 242.532 23.029,242.417 22.635,242.339 22.587 C 242.262 22.539,242.146 22.125,242.083 21.666 C 242.020 21.208,241.908 20.833,241.833 20.833 C 241.759 20.833,241.646 20.458,241.583 20.000 C 241.520 19.542,241.409 19.130,241.337 19.086 C 241.264 19.041,241.155 18.667,241.093 18.256 C 241.031 17.844,240.917 17.468,240.839 17.420 C 240.762 17.372,240.646 16.958,240.583 16.500 C 240.520 16.042,240.405 15.628,240.327 15.580 C 240.250 15.532,240.136 15.156,240.074 14.746 C 240.013 14.336,239.903 14.000,239.830 14.000 C 239.757 14.000,239.646 13.625,239.583 13.167 C 239.520 12.709,239.409 12.297,239.337 12.252 C 239.264 12.207,239.155 11.834,239.093 11.423 C 239.031 11.011,238.919 10.636,238.843 10.589 C 238.767 10.542,238.655 10.167,238.593 9.756 C 238.531 9.344,238.419 8.969,238.343 8.922 C 238.267 8.875,238.153 8.564,238.091 8.231 C 238.028 7.898,237.913 7.504,237.835 7.354 C 237.757 7.205,237.547 6.783,237.367 6.417 C 237.188 6.050,236.900 5.493,236.729 5.178 C 236.355 4.493,234.547 2.667,234.243 2.667 C 234.125 2.667,234.003 2.599,233.972 2.516 C 233.892 2.297,231.385 1.864,231.131 2.025 M316.577 5.042 C 316.533 5.156,316.517 11.963,316.540 20.167 L 316.583 35.083 318.458 35.130 L 320.333 35.178 320.333 30.505 L 320.333 25.833 323.747 25.833 L 327.161 25.833 327.206 30.458 L 327.250 35.083 328.833 35.132 C 329.704 35.159,330.585 35.139,330.792 35.087 L 331.167 34.994 331.167 26.016 L 331.167 17.039 330.792 16.938 C 330.302 16.807,327.770 16.804,327.430 16.934 C 327.202 17.022,327.167 17.497,327.167 20.521 L 327.167 24.007 323.792 23.962 L 320.417 23.917 320.374 14.375 L 320.331 4.833 318.493 4.833 C 317.177 4.833,316.634 4.892,316.577 5.042 M230.292 7.459 C 230.453 7.620,230.726 8.201,230.899 8.751 C 231.072 9.300,231.270 9.900,231.340 10.083 C 231.624 10.835,232.168 12.942,232.167 13.292 C 232.167 13.498,232.233 13.667,232.314 13.667 C 232.396 13.667,232.499 13.873,232.544 14.125 C 232.631 14.614,233.136 16.494,233.584 18.000 C 233.850 18.895,234.167 20.083,234.229 20.417 C 234.246 20.508,234.307 20.659,234.365 20.751 C 234.422 20.844,234.522 21.200,234.587 21.543 L 234.704 22.167 229.685 22.167 C 226.451 22.167,224.667 22.107,224.667 22.000 C 224.667 21.908,224.725 21.833,224.797 21.833 C 224.869 21.833,224.943 21.646,224.962 21.417 C 224.981 21.188,225.135 20.569,225.306 20.042 C 225.476 19.515,225.752 18.596,225.920 18.000 C 226.088 17.404,226.277 16.842,226.341 16.750 C 226.404 16.658,226.507 16.283,226.568 15.917 C 226.630 15.550,226.747 15.063,226.828 14.833 C 226.909 14.604,227.139 13.854,227.340 13.167 C 227.541 12.479,227.843 11.467,228.011 10.917 C 228.180 10.367,228.437 9.493,228.582 8.975 C 228.996 7.505,229.708 6.874,230.292 7.459 M337.463 8.175 C 334.943 9.506,335.847 13.333,338.681 13.333 C 340.543 13.333,341.500 12.353,341.500 10.445 C 341.500 9.925,341.425 9.500,341.333 9.500 C 341.242 9.500,341.167 9.402,341.167 9.281 C 341.167 8.201,338.770 7.486,337.463 8.175 M254.500 16.542 C 254.500 16.610,254.350 16.667,254.167 16.667 C 253.983 16.667,253.833 16.746,253.833 16.843 C 253.833 16.940,253.758 16.973,253.667 16.917 C 253.575 16.860,253.500 16.882,253.500 16.966 C 253.500 17.050,253.310 17.323,253.077 17.575 C 252.585 18.105,252.075 19.166,251.910 20.000 C 251.847 20.321,251.737 20.658,251.666 20.750 C 251.596 20.842,251.484 21.242,251.419 21.639 C 251.353 22.036,251.195 22.561,251.067 22.805 C 250.940 23.050,250.835 23.456,250.834 23.708 C 250.834 23.960,250.767 24.167,250.686 24.167 C 250.604 24.167,250.486 24.515,250.422 24.941 C 250.358 25.367,250.241 25.836,250.163 25.983 C 249.973 26.337,249.333 28.495,249.333 28.780 C 249.333 28.904,249.269 29.135,249.190 29.294 C 249.111 29.453,248.931 29.958,248.788 30.417 C 248.646 30.875,248.290 32.020,247.997 32.962 C 247.389 34.917,247.447 35.167,248.507 35.167 C 249.349 35.167,249.667 35.028,249.667 34.659 C 249.667 34.491,249.742 34.307,249.833 34.250 C 249.925 34.193,250.000 33.976,250.000 33.768 C 250.000 33.559,250.052 33.337,250.116 33.273 C 250.238 33.151,250.265 33.060,250.427 32.250 C 250.482 31.975,250.556 31.655,250.592 31.540 C 250.628 31.424,250.673 31.274,250.692 31.207 C 250.711 31.139,250.815 30.783,250.923 30.417 L 251.120 29.750 254.461 29.705 L 257.803 29.660 257.916 30.329 C 257.978 30.697,258.089 31.035,258.162 31.080 C 258.235 31.126,258.345 31.499,258.407 31.911 C 258.469 32.322,258.590 32.703,258.676 32.756 C 258.763 32.809,258.834 32.980,258.834 33.135 C 258.840 34.784,259.344 35.167,261.517 35.167 C 263.845 35.167,263.772 35.308,262.958 32.375 C 262.825 31.894,262.761 31.499,262.816 31.497 C 262.871 31.496,262.840 31.440,262.747 31.372 C 262.654 31.305,262.483 30.912,262.368 30.500 C 262.253 30.087,262.040 29.337,261.895 28.833 C 261.750 28.329,261.568 27.692,261.491 27.417 C 261.414 27.142,261.193 26.392,261.000 25.750 C 260.807 25.108,260.577 24.283,260.488 23.917 C 260.400 23.550,260.264 23.100,260.186 22.917 C 259.924 22.296,259.498 20.918,259.499 20.692 C 259.500 20.466,259.200 19.726,258.690 18.698 C 258.281 17.872,257.536 17.027,256.943 16.718 C 256.415 16.442,254.500 16.304,254.500 16.542 M306.000 16.805 C 305.771 16.875,305.302 16.926,304.958 16.918 C 304.615 16.910,304.333 16.962,304.333 17.035 C 304.333 17.107,304.218 17.167,304.077 17.167 C 303.936 17.167,303.542 17.309,303.202 17.482 C 302.862 17.656,302.525 17.804,302.453 17.811 C 302.382 17.819,302.016 18.179,301.641 18.613 C 299.259 21.365,300.241 25.098,303.839 26.971 C 305.118 27.637,305.581 27.912,305.639 28.042 C 305.669 28.110,305.785 28.167,305.897 28.167 C 306.449 28.167,307.966 29.732,308.098 30.439 C 308.212 31.043,308.061 32.167,307.866 32.167 C 307.800 32.167,307.540 32.358,307.288 32.592 C 307.036 32.826,306.752 32.969,306.657 32.911 C 306.563 32.852,306.380 32.892,306.252 32.999 C 306.019 33.192,304.440 33.151,302.583 32.904 C 302.125 32.843,301.450 32.783,301.083 32.772 L 300.417 32.750 300.367 33.515 C 300.302 34.522,300.454 34.621,302.253 34.750 C 303.076 34.809,303.906 34.933,304.096 35.025 C 304.506 35.223,307.100 35.121,308.167 34.865 C 312.133 33.914,313.620 30.111,311.341 26.750 C 311.155 26.475,311.002 26.300,311.001 26.362 C 311.000 26.424,310.685 26.180,310.300 25.821 C 309.914 25.462,309.464 25.125,309.300 25.073 C 309.135 25.020,309.000 24.908,309.000 24.822 C 309.000 24.737,308.906 24.666,308.792 24.666 C 308.444 24.664,305.109 22.508,304.714 22.030 C 304.254 21.473,304.189 20.121,304.603 19.707 C 305.433 18.877,305.945 18.764,308.718 18.801 L 311.352 18.836 311.301 18.045 C 311.244 17.165,311.158 17.122,309.083 16.926 C 308.625 16.882,307.837 16.808,307.333 16.761 C 306.829 16.714,306.229 16.734,306.000 16.805 M264.125 16.948 C 263.736 17.050,264.182 18.904,264.726 19.448 C 264.785 19.507,264.833 19.660,264.833 19.787 C 264.833 19.914,264.975 20.333,265.148 20.717 C 265.322 21.102,265.603 21.829,265.773 22.333 C 265.944 22.837,266.140 23.275,266.208 23.306 C 266.277 23.336,266.333 23.437,266.333 23.530 C 266.333 23.623,266.436 23.936,266.561 24.225 C 266.686 24.514,266.918 25.087,267.076 25.500 C 267.234 25.912,267.464 26.475,267.587 26.750 C 267.875 27.394,268.075 28.049,268.033 28.208 C 268.015 28.277,268.075 28.333,268.167 28.333 C 268.258 28.333,268.333 28.452,268.333 28.598 C 268.333 28.744,268.558 29.349,268.833 29.943 C 269.108 30.537,269.333 31.097,269.333 31.187 C 269.333 31.278,269.487 31.704,269.676 32.134 C 270.609 34.266,270.848 34.971,270.675 35.078 C 270.593 35.129,270.474 35.413,270.410 35.710 C 270.347 36.007,270.200 36.438,270.085 36.667 C 269.314 38.200,267.393 42.929,267.460 43.131 C 267.627 43.630,270.000 43.336,270.000 42.816 C 270.000 42.642,270.069 42.500,270.153 42.500 C 270.238 42.500,270.357 42.270,270.419 41.989 C 270.481 41.708,270.636 41.276,270.765 41.030 C 270.893 40.785,270.998 40.490,270.999 40.375 C 271.000 40.260,271.075 40.167,271.167 40.167 C 271.258 40.167,271.333 40.064,271.333 39.938 C 271.333 39.729,271.642 38.940,272.264 37.558 C 272.394 37.269,272.500 36.993,272.500 36.945 C 272.500 36.896,272.725 36.370,273.000 35.776 C 273.275 35.182,273.500 34.573,273.500 34.422 C 273.500 34.271,273.567 34.188,273.648 34.239 C 273.730 34.289,273.849 34.050,273.914 33.707 C 273.978 33.365,274.101 33.040,274.188 32.987 C 274.274 32.933,274.380 32.698,274.422 32.464 C 274.465 32.231,274.612 31.824,274.749 31.561 C 274.886 31.298,274.998 30.985,274.999 30.865 C 275.000 30.745,275.059 30.684,275.132 30.729 C 275.205 30.774,275.274 30.673,275.287 30.505 C 275.300 30.337,275.471 29.836,275.667 29.391 C 275.863 28.947,276.136 28.321,276.273 28.000 C 276.410 27.679,276.588 27.267,276.669 27.083 C 276.749 26.900,276.969 26.398,277.158 25.967 C 277.346 25.537,277.500 25.068,277.500 24.926 C 277.500 24.783,277.569 24.667,277.653 24.667 C 277.738 24.667,277.856 24.442,277.917 24.167 C 277.977 23.892,278.089 23.667,278.165 23.667 C 278.242 23.667,278.355 23.367,278.417 23.000 C 278.479 22.633,278.594 22.333,278.674 22.333 C 278.753 22.333,278.867 22.071,278.927 21.751 C 278.987 21.431,279.088 21.201,279.150 21.240 C 279.213 21.279,279.274 21.173,279.287 21.005 C 279.300 20.837,279.471 20.336,279.667 19.891 C 279.863 19.447,280.136 18.821,280.273 18.500 C 280.410 18.179,280.605 17.748,280.706 17.542 C 280.964 17.015,280.787 16.917,279.577 16.917 C 278.416 16.917,278.097 17.130,277.894 18.042 C 277.838 18.294,277.718 18.500,277.628 18.500 C 277.538 18.500,277.507 18.610,277.558 18.745 C 277.610 18.879,277.589 19.029,277.511 19.076 C 277.434 19.124,277.319 19.368,277.256 19.618 C 277.155 20.020,276.934 20.544,276.075 22.417 C 275.949 22.692,275.492 23.779,275.060 24.833 C 274.629 25.887,274.207 26.796,274.123 26.852 C 274.040 26.908,273.979 27.002,273.988 27.061 C 273.997 27.120,273.888 27.445,273.747 27.783 C 273.606 28.121,273.447 28.570,273.394 28.782 C 273.257 29.325,273.047 29.259,272.909 28.630 C 272.844 28.336,272.728 27.979,272.651 27.839 C 272.318 27.228,271.833 25.997,271.833 25.759 C 271.833 25.617,271.764 25.500,271.680 25.500 C 271.596 25.500,271.473 25.259,271.409 24.964 C 271.344 24.669,271.228 24.313,271.151 24.172 C 270.821 23.568,270.308 22.276,270.287 21.995 C 270.274 21.827,270.211 21.722,270.147 21.762 C 270.082 21.802,269.979 21.534,269.917 21.167 C 269.855 20.800,269.742 20.500,269.665 20.500 C 269.525 20.500,269.240 19.532,269.306 19.279 C 269.325 19.204,269.271 19.186,269.184 19.239 C 269.098 19.293,268.978 19.111,268.917 18.837 C 268.857 18.562,268.738 18.294,268.654 18.242 C 268.569 18.190,268.500 18.001,268.500 17.823 C 268.500 16.969,265.977 16.464,264.125 16.948 M282.944 16.944 C 282.758 17.131,282.813 30.634,283.000 30.750 C 283.092 30.807,283.167 31.009,283.167 31.200 C 283.167 32.182,285.377 34.833,286.195 34.833 C 286.363 34.833,286.500 34.906,286.500 34.994 C 286.500 35.083,286.877 35.205,287.337 35.266 C 287.797 35.327,288.214 35.442,288.264 35.522 C 288.380 35.711,291.120 35.711,291.236 35.522 C 291.286 35.442,291.703 35.327,292.163 35.266 C 292.623 35.205,293.000 35.091,293.000 35.012 C 293.000 34.934,293.178 34.825,293.395 34.770 C 294.472 34.500,296.091 32.347,296.356 30.833 C 296.586 29.523,296.525 17.119,296.288 16.969 C 296.028 16.803,294.812 16.799,294.555 16.962 C 294.413 17.053,294.344 18.923,294.301 23.835 L 294.241 30.583 293.829 31.326 C 293.375 32.143,292.274 32.997,291.824 32.879 C 291.667 32.838,291.487 32.886,291.426 32.985 C 291.292 33.202,290.059 33.230,289.928 33.019 C 289.878 32.938,289.571 32.821,289.245 32.760 C 288.572 32.634,287.811 31.919,287.283 30.917 C 286.946 30.277,286.929 29.978,286.871 23.641 L 286.810 17.033 286.447 16.935 C 285.944 16.801,283.081 16.808,282.944 16.944 M336.958 17.013 C 336.612 17.215,336.498 34.207,336.839 34.844 C 337.036 35.213,340.050 35.330,340.678 34.994 C 341.130 34.752,341.188 17.545,340.738 17.095 C 340.431 16.788,337.456 16.724,336.958 17.013 M255.021 20.119 C 255.179 20.402,255.360 20.979,255.423 21.402 C 255.487 21.825,255.605 22.212,255.686 22.262 C 255.767 22.312,255.834 22.555,255.834 22.802 C 255.835 23.048,255.943 23.456,256.074 23.707 C 256.205 23.959,256.363 24.504,256.426 24.918 C 256.488 25.332,256.605 25.712,256.686 25.762 C 256.767 25.812,256.834 26.055,256.834 26.302 C 256.835 26.548,256.943 26.956,257.074 27.208 L 257.314 27.667 254.594 27.667 L 251.874 27.667 252.027 26.875 C 252.111 26.440,252.247 25.961,252.329 25.812 C 252.410 25.663,252.530 25.251,252.594 24.896 C 252.658 24.540,252.766 24.175,252.833 24.083 C 252.966 23.904,253.241 22.665,253.195 22.458 C 253.179 22.390,253.232 22.333,253.312 22.333 C 253.392 22.333,253.508 22.015,253.569 21.625 C 253.847 19.864,254.500 19.187,255.021 20.119 M220.779 48.110 C 220.505 48.384,220.654 75.293,220.930 75.399 C 221.497 75.616,236.922 75.511,237.228 75.287 C 237.460 75.117,237.509 74.873,237.468 74.079 L 237.417 73.083 231.708 73.039 L 226.000 72.996 226.000 67.664 L 226.000 62.333 231.258 62.333 L 236.515 62.333 236.466 61.208 L 236.417 60.083 231.208 60.039 L 226.000 59.995 226.000 55.160 L 226.000 50.325 231.375 50.333 C 234.331 50.338,236.847 50.340,236.966 50.338 C 237.126 50.334,237.169 50.042,237.133 49.208 L 237.083 48.083 228.988 48.040 C 224.535 48.016,220.841 48.048,220.779 48.110 M349.204 48.601 C 347.053 50.296,348.137 53.667,350.833 53.667 C 353.532 53.667,354.653 50.012,352.406 48.539 C 351.555 47.981,349.951 48.012,349.204 48.601 M26.636 53.584 C 26.532 53.813,26.393 54.000,26.327 54.000 C 26.261 54.000,25.917 54.430,25.562 54.956 C 25.207 55.481,24.787 56.056,24.628 56.233 C 24.470 56.410,24.133 56.862,23.879 57.236 C 23.625 57.610,23.345 57.969,23.255 58.033 C 23.166 58.096,23.153 58.209,23.227 58.283 C 23.388 58.443,185.590 58.466,185.751 58.305 C 185.812 58.244,185.368 57.531,184.764 56.722 C 183.327 54.794,183.095 54.493,182.681 54.016 C 182.490 53.796,182.333 53.514,182.333 53.391 C 182.333 53.202,169.718 53.166,104.579 53.167 L 26.826 53.168 26.636 53.584 M242.489 56.929 C 241.076 57.678,241.000 58.211,241.000 67.446 C 241.000 76.185,240.895 75.575,242.381 75.468 L 243.083 75.417 243.127 68.030 C 243.173 60.111,243.201 59.890,243.970 61.243 C 244.124 61.514,244.380 61.883,244.540 62.064 C 244.699 62.244,244.873 62.529,244.926 62.696 C 244.979 62.863,245.092 63.000,245.178 63.000 C 245.263 63.000,245.333 63.098,245.333 63.219 C 245.333 63.339,245.465 63.584,245.625 63.763 C 245.785 63.942,246.320 64.688,246.813 65.419 C 248.517 67.949,249.084 68.750,249.208 68.806 C 249.277 68.836,249.333 68.933,249.333 69.021 C 249.333 69.208,250.026 70.224,250.208 70.306 C 250.277 70.336,250.333 70.433,250.333 70.521 C 250.333 70.708,251.026 71.724,251.208 71.806 C 251.277 71.836,251.333 71.933,251.333 72.021 C 251.333 72.208,252.026 73.224,252.208 73.306 C 252.277 73.336,252.335 73.449,252.338 73.556 C 252.344 73.820,253.497 75.077,253.947 75.311 C 254.495 75.595,255.071 75.540,255.561 75.155 L 256.000 74.809 256.000 65.897 L 256.000 56.984 254.958 57.034 L 253.917 57.083 253.873 62.542 C 253.828 68.145,253.797 68.385,253.255 67.458 C 253.080 67.160,252.633 66.491,252.260 65.970 C 251.888 65.449,251.452 64.812,251.292 64.553 C 249.730 62.030,247.152 58.360,246.565 57.824 C 245.331 56.697,243.631 56.323,242.489 56.929 M362.083 57.111 C 361.717 57.154,361.345 57.259,361.258 57.344 C 361.171 57.430,360.983 57.500,360.839 57.500 C 360.536 57.500,359.382 58.094,359.060 58.416 C 358.939 58.538,358.777 58.662,358.702 58.693 C 357.534 59.173,356.934 62.482,357.708 64.175 C 358.241 65.339,360.834 67.667,361.598 67.667 C 361.880 67.667,363.818 68.966,364.366 69.522 C 364.974 70.140,365.244 70.900,365.097 71.583 C 365.058 71.767,365.020 71.969,365.013 72.033 C 365.006 72.097,364.827 72.336,364.617 72.563 C 364.275 72.932,363.971 73.072,363.157 73.235 C 363.025 73.261,362.787 73.339,362.629 73.408 C 362.342 73.532,361.073 73.463,360.393 73.286 C 360.196 73.235,359.428 73.140,358.685 73.075 L 357.333 72.957 357.333 73.792 C 357.333 74.547,357.377 74.644,357.792 74.808 C 358.666 75.155,363.928 75.585,364.090 75.323 C 364.143 75.237,364.400 75.167,364.662 75.167 C 369.021 75.167,371.006 69.349,367.632 66.461 C 367.175 66.070,366.655 65.616,366.477 65.452 C 366.299 65.288,365.988 65.082,365.785 64.994 C 365.398 64.826,365.192 64.703,364.056 63.958 C 363.671 63.706,363.290 63.500,363.208 63.500 C 362.543 63.500,361.071 61.500,361.272 60.871 C 361.543 60.025,361.725 59.667,361.882 59.667 C 361.978 59.667,362.202 59.535,362.380 59.375 C 362.663 59.119,363.048 59.087,365.518 59.109 L 368.333 59.136 368.333 58.356 L 368.333 57.576 367.430 57.366 C 366.459 57.140,363.173 56.983,362.083 57.111 M392.837 57.124 C 392.426 57.160,392.013 57.251,391.920 57.326 C 391.826 57.400,391.506 57.514,391.208 57.577 C 390.910 57.641,390.665 57.743,390.662 57.805 C 390.660 57.866,390.363 58.098,390.003 58.320 C 388.605 59.182,388.250 59.976,388.250 62.236 C 388.250 63.676,388.307 64.241,388.458 64.291 C 388.573 64.330,388.667 64.438,388.667 64.532 C 388.667 65.166,390.640 66.786,392.767 67.898 C 393.230 68.140,393.772 68.490,393.971 68.676 C 394.170 68.861,394.333 68.959,394.333 68.894 C 394.333 68.686,395.174 69.556,395.531 70.133 C 396.004 70.898,395.891 72.225,395.319 72.634 C 394.369 73.313,391.855 73.773,391.408 73.350 C 391.321 73.268,390.556 73.147,389.708 73.082 L 388.167 72.965 388.167 73.789 C 388.167 74.823,388.385 74.943,390.535 75.099 C 391.387 75.161,392.165 75.275,392.265 75.354 C 392.762 75.744,396.029 75.231,397.333 74.557 C 399.356 73.512,399.997 72.438,399.999 70.094 C 400.001 67.721,398.688 66.092,395.324 64.296 C 392.458 62.766,391.521 61.565,392.189 60.281 C 392.760 59.183,393.737 58.928,396.775 59.085 L 398.966 59.199 399.079 58.687 C 399.247 57.923,399.062 57.551,398.453 57.426 C 396.700 57.068,394.702 56.960,392.837 57.124 M259.068 57.395 C 259.019 57.524,259.002 57.956,259.031 58.356 L 259.083 59.083 260.958 59.130 L 262.833 59.178 262.833 67.236 L 262.833 75.294 263.208 75.395 C 263.899 75.580,266.423 75.510,266.633 75.300 C 266.783 75.150,266.833 73.109,266.833 67.139 L 266.833 59.177 268.792 59.130 L 270.750 59.083 270.750 58.167 L 270.750 57.250 264.954 57.206 C 260.113 57.170,259.143 57.201,259.068 57.395 M275.161 57.602 C 274.660 57.871,274.302 58.218,274.101 58.629 C 273.933 58.971,273.735 59.372,273.660 59.521 C 273.585 59.670,273.516 62.561,273.506 65.945 C 273.479 75.818,273.103 75.373,281.500 75.401 L 286.250 75.417 286.300 74.464 L 286.350 73.512 282.633 73.449 C 279.313 73.393,278.027 73.308,277.944 73.138 C 277.929 73.108,277.823 72.916,277.708 72.711 C 277.565 72.454,277.500 71.476,277.500 69.580 L 277.500 66.821 280.958 66.841 L 284.417 66.861 284.518 66.055 C 284.658 64.941,284.856 65.000,280.990 65.000 L 277.500 65.000 277.512 62.625 C 277.522 60.675,277.577 60.160,277.817 59.750 L 278.110 59.250 282.055 59.205 L 286.000 59.161 286.000 58.164 L 286.000 57.167 280.958 57.181 C 275.943 57.195,275.913 57.197,275.161 57.602 M290.167 66.226 L 290.167 75.294 290.542 75.395 C 291.232 75.580,293.757 75.510,293.967 75.300 C 294.117 75.150,294.167 73.070,294.167 66.967 L 294.167 58.833 295.115 58.833 C 296.219 58.833,298.000 59.169,298.000 59.377 C 298.000 59.455,298.067 59.478,298.150 59.427 C 298.287 59.342,298.953 59.917,299.455 60.553 C 300.665 62.084,299.566 65.661,297.885 65.666 C 297.684 65.666,297.473 65.742,297.417 65.833 C 297.360 65.925,296.943 66.000,296.490 66.000 C 295.944 66.000,295.666 66.070,295.663 66.208 C 295.654 66.758,300.097 75.212,300.469 75.353 C 300.979 75.547,304.516 75.538,304.826 75.341 C 305.073 75.185,304.269 73.168,303.958 73.167 C 303.890 73.167,303.833 73.082,303.833 72.979 C 303.833 72.825,302.777 70.941,302.162 70.000 C 302.073 69.862,301.931 69.593,301.847 69.401 C 301.763 69.208,301.388 68.551,301.014 67.939 C 300.171 66.563,300.164 66.638,301.167 66.282 C 301.906 66.020,302.771 65.326,303.476 64.430 C 303.600 64.273,303.741 63.849,303.789 63.488 C 303.838 63.128,303.926 62.833,303.986 62.833 C 304.380 62.833,303.946 60.430,303.394 59.555 C 302.145 57.573,301.095 57.282,294.958 57.212 L 290.167 57.157 290.167 66.226 M308.745 57.370 C 308.701 57.487,308.683 63.433,308.707 70.583 L 308.750 83.583 310.792 83.630 L 312.833 83.677 312.833 79.422 L 312.833 75.167 313.836 75.167 C 314.387 75.167,314.981 75.256,315.155 75.365 C 315.396 75.515,315.626 75.517,316.111 75.373 C 316.462 75.269,317.305 75.145,317.984 75.099 C 318.663 75.053,319.297 74.937,319.392 74.841 C 319.488 74.745,319.683 74.667,319.825 74.667 C 321.485 74.667,324.732 71.400,325.230 69.229 C 325.290 68.965,325.392 68.525,325.456 68.250 C 326.334 64.478,324.219 60.037,320.741 58.350 C 320.288 58.130,319.784 57.885,319.621 57.805 C 319.459 57.725,318.971 57.613,318.538 57.557 C 318.105 57.500,317.673 57.394,317.579 57.321 C 317.269 57.080,308.838 57.126,308.745 57.370 M330.000 66.226 L 330.000 75.294 330.375 75.395 C 331.066 75.580,333.590 75.510,333.800 75.300 C 333.950 75.150,334.000 73.070,334.000 66.967 L 334.000 58.833 334.958 58.839 C 338.138 58.859,339.743 60.075,339.814 62.520 C 339.876 64.687,338.493 65.991,336.125 65.998 C 335.300 66.001,335.307 66.038,336.626 68.595 C 337.244 69.793,338.237 71.756,338.833 72.959 C 339.562 74.430,340.042 75.203,340.300 75.322 C 340.755 75.534,344.318 75.558,344.643 75.351 C 344.887 75.197,344.583 74.000,344.300 74.000 C 344.227 74.000,344.167 73.916,344.167 73.813 C 344.167 73.710,343.838 73.084,343.436 72.422 C 343.035 71.761,342.654 71.058,342.592 70.860 C 342.529 70.662,342.408 70.500,342.322 70.500 C 342.237 70.500,342.167 70.416,342.167 70.313 C 342.167 70.210,341.838 69.584,341.436 68.922 C 341.035 68.261,340.654 67.558,340.592 67.360 C 340.529 67.162,340.408 67.000,340.322 67.000 C 339.868 67.000,340.264 66.524,340.868 66.343 C 342.623 65.817,344.225 63.376,343.953 61.644 C 343.792 60.623,343.520 59.757,343.342 59.697 C 343.246 59.665,343.165 59.551,343.164 59.444 C 343.157 58.978,341.435 57.791,340.299 57.469 C 339.837 57.338,337.885 57.247,334.792 57.212 L 330.000 57.157 330.000 66.226 M348.949 57.273 C 348.730 57.492,348.812 75.079,349.033 75.300 C 349.310 75.577,352.341 75.570,352.720 75.292 C 352.982 75.099,353.000 74.401,352.960 66.167 L 352.917 57.250 350.991 57.203 C 349.932 57.178,349.013 57.209,348.949 57.273 M374.750 57.370 C 374.003 57.635,373.368 58.129,373.237 58.546 C 373.174 58.750,373.038 58.970,372.936 59.036 C 372.804 59.120,372.750 61.248,372.750 66.380 L 372.750 73.605 373.430 74.320 C 373.993 74.911,374.244 75.050,374.888 75.122 C 375.316 75.171,375.667 75.271,375.667 75.345 C 375.667 75.588,385.093 75.540,385.291 75.296 C 385.386 75.179,385.491 74.730,385.525 74.297 L 385.585 73.512 381.834 73.449 C 378.231 73.389,377.393 73.327,377.010 73.089 C 376.896 73.019,376.833 71.885,376.833 69.901 L 376.833 66.821 380.208 66.841 L 383.583 66.860 383.583 65.972 L 383.583 65.083 380.208 65.038 L 376.833 64.993 376.833 62.342 C 376.833 58.857,376.404 59.167,381.244 59.167 C 385.562 59.167,385.333 59.232,385.333 58.004 C 385.333 57.579,385.246 57.336,385.070 57.268 C 384.602 57.088,375.284 57.181,374.750 57.370 M316.250 59.139 C 317.315 59.423,318.001 59.830,318.819 60.665 C 319.857 61.723,319.991 61.914,320.108 62.497 C 320.163 62.774,320.266 63.000,320.336 63.000 C 320.712 63.000,321.202 67.961,320.868 68.386 C 320.782 68.494,320.666 68.888,320.609 69.260 C 320.313 71.207,318.250 73.160,316.483 73.165 C 316.153 73.166,315.641 73.251,315.346 73.354 C 314.948 73.493,314.759 73.493,314.621 73.354 C 314.518 73.251,314.073 73.167,313.633 73.167 L 312.833 73.167 312.833 66.096 C 312.833 59.499,312.853 59.020,313.125 58.954 C 313.614 58.836,315.543 58.950,316.250 59.139 " stroke="none" fill="#e4332c" fill-rule="evenodd"></path><path id="path1" d="M73.333 0.214 C 73.196 0.325,72.797 0.754,72.448 1.167 C 71.426 2.372,70.566 3.342,69.499 4.494 C 68.949 5.087,68.500 5.621,68.500 5.681 C 68.500 5.741,68.144 6.174,67.708 6.643 C 66.212 8.255,65.478 9.084,65.335 9.323 C 65.202 9.545,64.534 10.296,62.667 12.322 C 62.254 12.770,61.804 13.302,61.667 13.504 C 61.529 13.707,61.098 14.195,60.708 14.590 C 60.319 14.984,60.000 15.360,60.000 15.426 C 60.000 15.491,59.625 15.914,59.167 16.365 C 58.708 16.816,58.333 17.243,58.333 17.313 C 58.333 17.384,57.921 17.864,57.417 18.380 C 56.913 18.896,56.500 19.380,56.500 19.456 C 56.500 19.531,56.293 19.778,56.039 20.005 C 55.785 20.231,55.279 20.788,54.914 21.243 C 54.549 21.697,53.969 22.344,53.625 22.682 C 53.281 23.019,53.000 23.347,53.000 23.412 C 53.000 23.477,52.625 23.913,52.167 24.381 C 51.708 24.850,51.333 25.288,51.333 25.356 C 51.333 25.425,51.015 25.814,50.625 26.222 C 49.938 26.941,49.148 27.823,47.020 30.244 C 46.459 30.882,46.000 31.505,46.000 31.628 C 46.000 31.815,48.564 31.844,61.294 31.801 L 76.587 31.750 77.710 30.593 C 78.328 29.957,78.833 29.382,78.833 29.315 C 78.833 29.248,79.396 28.631,80.083 27.944 C 80.771 27.256,81.333 26.642,81.333 26.579 C 81.333 26.414,83.163 24.607,83.246 24.690 C 83.284 24.728,83.238 25.057,83.144 25.421 C 83.049 25.785,82.913 26.421,82.841 26.833 C 82.688 27.702,82.376 29.152,82.154 30.019 C 82.069 30.351,82.000 30.782,82.000 30.978 L 82.000 31.333 93.917 31.333 C 104.398 31.333,105.833 31.303,105.833 31.083 C 105.833 30.946,105.906 30.833,105.994 30.833 C 106.083 30.833,106.205 30.458,106.266 30.000 C 106.327 29.542,106.433 29.167,106.502 29.167 C 106.572 29.167,106.680 28.755,106.742 28.253 C 106.805 27.750,106.921 27.299,107.000 27.250 C 107.079 27.201,107.195 26.750,107.258 26.247 C 107.320 25.745,107.431 25.333,107.504 25.333 C 107.576 25.333,107.687 24.958,107.750 24.500 C 107.813 24.042,107.925 23.667,107.999 23.667 C 108.073 23.667,108.186 23.217,108.250 22.667 C 108.314 22.117,108.428 21.667,108.504 21.667 C 108.580 21.667,108.694 21.254,108.757 20.750 C 108.820 20.246,108.928 19.833,108.998 19.833 C 109.067 19.833,109.173 19.461,109.233 19.007 C 109.294 18.552,109.411 18.139,109.493 18.088 C 109.576 18.037,109.695 17.583,109.758 17.081 C 109.820 16.578,109.929 16.167,110.000 16.167 C 110.071 16.167,110.180 15.754,110.243 15.250 C 110.306 14.746,110.420 14.333,110.496 14.333 C 110.572 14.333,110.686 13.883,110.750 13.333 C 110.814 12.783,110.931 12.333,111.011 12.333 C 111.090 12.333,111.205 11.958,111.266 11.500 C 111.327 11.042,111.433 10.667,111.502 10.667 C 111.572 10.667,111.680 10.255,111.742 9.753 C 111.805 9.250,111.921 8.799,112.000 8.750 C 112.079 8.701,112.195 8.250,112.258 7.747 C 112.320 7.245,112.431 6.833,112.504 6.833 C 112.576 6.833,112.687 6.458,112.750 6.000 C 112.813 5.542,112.925 5.167,112.999 5.167 C 113.073 5.167,113.186 4.717,113.250 4.167 C 113.314 3.617,113.428 3.167,113.504 3.167 C 113.580 3.167,113.694 2.754,113.757 2.250 C 113.820 1.746,113.938 1.333,114.019 1.333 C 114.100 1.333,114.167 1.083,114.167 0.777 L 114.167 0.221 106.042 0.111 C 92.113 -0.078,73.621 -0.020,73.333 0.214 M118.069 0.958 C 118.007 1.302,117.896 1.660,117.822 1.754 C 117.748 1.848,117.636 2.317,117.573 2.796 C 117.509 3.275,117.400 3.667,117.331 3.667 C 117.262 3.667,117.151 4.098,117.086 4.625 C 117.020 5.152,116.915 5.621,116.852 5.667 C 116.789 5.712,116.645 6.162,116.531 6.667 C 116.417 7.171,116.253 7.846,116.166 8.167 C 116.079 8.487,115.907 9.162,115.783 9.667 C 115.659 10.171,115.512 10.696,115.456 10.833 C 115.401 10.971,115.279 11.421,115.186 11.833 C 115.093 12.246,114.895 13.033,114.746 13.583 C 114.598 14.133,114.363 15.033,114.225 15.583 C 114.088 16.133,113.861 17.033,113.722 17.583 C 113.583 18.133,113.382 18.958,113.275 19.417 C 113.169 19.875,113.035 20.325,112.977 20.417 C 112.919 20.508,112.821 20.921,112.760 21.333 C 112.698 21.746,112.581 22.233,112.500 22.417 C 112.419 22.600,112.267 23.125,112.163 23.583 C 111.699 25.615,111.575 26.094,111.468 26.260 C 111.405 26.357,111.301 26.827,111.238 27.305 C 111.175 27.783,111.063 28.211,110.990 28.256 C 110.917 28.302,110.805 28.750,110.742 29.253 C 110.680 29.755,110.562 30.167,110.481 30.167 C 110.400 30.167,110.333 30.429,110.333 30.750 L 110.333 31.333 122.210 31.333 C 135.625 31.333,134.368 31.468,134.602 30.007 C 134.661 29.637,134.770 29.333,134.844 29.333 C 134.919 29.333,135.030 28.996,135.092 28.583 C 135.154 28.171,135.266 27.833,135.342 27.833 C 135.418 27.833,135.530 27.496,135.592 27.083 C 135.654 26.671,135.766 26.333,135.842 26.333 C 135.918 26.333,136.030 25.996,136.092 25.583 C 136.154 25.171,136.266 24.833,136.342 24.833 C 136.418 24.833,136.530 24.496,136.592 24.083 C 136.654 23.671,136.763 23.333,136.834 23.333 C 136.905 23.333,137.012 23.071,137.072 22.750 L 137.182 22.167 155.841 22.167 L 174.500 22.167 174.500 11.417 L 174.500 0.667 173.750 0.667 C 173.338 0.667,173.000 0.592,173.000 0.500 C 173.000 0.390,163.753 0.333,145.591 0.333 L 118.182 0.333 118.069 0.958 M42.448 35.801 C 42.202 36.058,42.000 36.324,42.000 36.392 C 42.000 36.460,41.831 36.681,41.625 36.883 C 41.419 37.085,41.068 37.512,40.846 37.833 C 40.623 38.154,40.342 38.477,40.221 38.550 C 40.099 38.623,40.000 38.830,40.000 39.008 C 40.000 39.330,40.670 39.333,105.750 39.333 C 170.830 39.333,171.500 39.330,171.500 39.008 C 171.500 38.830,171.401 38.623,171.279 38.550 C 171.158 38.477,170.877 38.154,170.654 37.833 C 170.432 37.512,170.081 37.085,169.875 36.883 C 169.669 36.681,169.498 36.456,169.495 36.383 C 169.492 36.310,169.308 36.044,169.086 35.792 L 168.683 35.333 105.789 35.333 L 42.896 35.333 42.448 35.801 M36.434 42.110 C 36.012 42.538,35.667 42.941,35.667 43.006 C 35.667 43.071,35.292 43.511,34.833 43.984 C 34.375 44.457,34.000 44.992,34.000 45.172 C 34.000 45.498,34.494 45.500,105.167 45.500 C 173.311 45.500,176.333 45.487,176.333 45.203 C 176.333 45.040,175.977 44.519,175.542 44.046 C 175.106 43.573,174.392 42.788,173.954 42.301 L 173.159 41.417 105.180 41.374 L 37.201 41.332 36.434 42.110 M30.625 49.185 C 29.720 50.118,29.000 51.004,29.000 51.181 C 29.000 51.495,30.266 51.500,105.167 51.500 C 172.759 51.500,181.333 51.472,181.333 51.250 C 181.333 51.112,181.263 51.000,181.178 51.000 C 181.092 51.000,180.978 50.859,180.923 50.686 C 180.868 50.514,180.184 49.726,179.403 48.936 L 177.983 47.500 105.116 47.503 L 32.250 47.507 30.625 49.185 M117.625 61.125 C 109.009 61.152,103.667 61.229,103.667 61.326 C 103.667 61.413,103.235 61.506,102.708 61.533 C 101.780 61.582,101.748 61.599,101.694 62.083 C 101.663 62.358,101.574 62.660,101.496 62.754 C 101.418 62.848,101.303 63.317,101.239 63.796 C 101.176 64.275,101.066 64.667,100.995 64.667 C 100.924 64.667,100.814 65.117,100.750 65.667 C 100.686 66.217,100.575 66.667,100.503 66.667 C 100.431 66.667,100.320 67.078,100.258 67.581 C 100.195 68.083,100.079 68.535,100.000 68.583 C 99.921 68.632,99.805 69.083,99.742 69.586 C 99.680 70.089,99.569 70.500,99.497 70.500 C 99.425 70.500,99.314 70.950,99.250 71.500 C 99.186 72.050,99.074 72.500,99.000 72.500 C 98.926 72.500,98.814 72.950,98.750 73.500 C 98.686 74.050,98.574 74.500,98.500 74.500 C 98.426 74.500,98.314 74.950,98.250 75.500 C 98.186 76.050,98.075 76.500,98.003 76.500 C 97.931 76.500,97.820 76.911,97.758 77.414 C 97.695 77.917,97.581 78.367,97.504 78.414 C 97.427 78.462,97.313 78.875,97.250 79.333 C 97.187 79.791,97.073 80.205,96.996 80.252 C 96.919 80.300,96.805 80.750,96.742 81.253 C 96.680 81.755,96.569 82.167,96.497 82.167 C 96.425 82.167,96.314 82.617,96.250 83.167 C 96.186 83.717,96.066 84.167,95.984 84.167 C 95.901 84.167,95.833 84.429,95.833 84.750 L 95.833 85.333 133.958 85.333 C 179.802 85.332,178.116 85.374,176.958 84.261 C 176.752 84.063,176.401 83.642,176.179 83.325 C 175.957 83.009,175.675 82.690,175.554 82.617 C 175.433 82.543,175.333 82.402,175.333 82.302 C 175.333 82.203,175.146 81.948,174.917 81.735 C 174.688 81.523,174.500 81.281,174.500 81.198 C 174.500 81.061,174.258 80.767,172.920 79.285 C 172.689 79.029,172.500 78.754,172.500 78.673 C 172.500 78.592,172.275 78.301,172.000 78.026 C 171.725 77.751,171.500 77.460,171.500 77.380 C 171.500 77.300,171.278 77.050,171.007 76.826 C 170.736 76.601,170.511 76.329,170.507 76.221 C 170.503 76.114,170.275 75.801,170.000 75.526 C 169.725 75.251,169.500 74.949,169.500 74.854 C 169.500 74.760,169.404 74.623,169.286 74.550 C 169.168 74.477,168.903 74.192,168.697 73.917 C 167.959 72.930,167.579 72.448,167.331 72.182 C 167.192 72.034,166.896 71.651,166.673 71.331 C 166.449 71.011,166.169 70.690,166.050 70.617 C 165.931 70.543,165.833 70.402,165.833 70.302 C 165.833 70.203,165.665 69.959,165.458 69.761 C 165.252 69.563,164.901 69.142,164.679 68.825 C 164.457 68.509,164.175 68.190,164.054 68.117 C 163.933 68.043,163.833 67.902,163.833 67.802 C 163.833 67.703,163.665 67.459,163.458 67.261 C 163.252 67.063,162.899 66.642,162.674 66.325 C 162.151 65.590,162.016 65.423,161.458 64.818 C 161.206 64.545,161.000 64.255,161.000 64.174 C 161.000 64.092,160.775 63.801,160.500 63.526 C 160.225 63.251,160.000 62.960,160.000 62.880 C 160.000 62.800,159.778 62.550,159.507 62.326 C 159.236 62.101,159.011 61.828,159.007 61.720 C 159.003 61.612,158.882 61.406,158.738 61.262 C 158.456 60.980,161.203 60.989,117.625 61.125 M19.513 62.013 C 19.231 62.295,19.000 62.593,19.000 62.676 C 19.000 62.759,18.587 63.232,18.083 63.728 C 17.579 64.225,17.167 64.686,17.167 64.753 C 17.167 64.821,16.832 65.223,16.423 65.646 C 16.014 66.070,15.258 66.904,14.743 67.500 C 14.228 68.096,13.437 68.980,12.986 69.465 C 12.536 69.949,12.167 70.384,12.167 70.431 C 12.167 70.478,11.895 70.794,11.563 71.133 C 11.232 71.472,10.763 72.010,10.522 72.329 C 10.281 72.647,9.765 73.215,9.375 73.592 C 8.985 73.968,8.667 74.330,8.667 74.395 C 8.667 74.461,8.254 74.937,7.750 75.453 C 7.246 75.970,6.833 76.450,6.833 76.520 C 6.833 76.591,6.458 77.017,6.000 77.469 C 5.542 77.920,5.167 78.345,5.167 78.414 C 5.167 78.483,4.875 78.822,4.518 79.168 C 4.162 79.514,3.798 79.926,3.710 80.083 C 3.558 80.355,2.858 81.145,0.875 83.283 C -0.980 85.282,-2.140 85.129,15.842 85.265 L 30.434 85.376 30.898 84.813 C 31.541 84.033,32.766 82.639,33.708 81.619 C 34.144 81.147,34.500 80.711,34.500 80.652 C 34.500 80.592,34.856 80.159,35.292 79.690 C 36.759 78.110,37.521 77.251,37.652 77.031 C 37.789 76.801,38.881 75.557,40.208 74.119 C 40.644 73.647,41.000 73.211,41.000 73.152 C 41.000 73.092,41.356 72.662,41.792 72.196 C 43.064 70.835,44.078 69.659,44.147 69.466 C 44.182 69.367,44.538 68.972,44.938 68.588 C 45.339 68.204,45.667 67.834,45.667 67.765 C 45.667 67.697,45.985 67.318,46.375 66.923 C 46.765 66.529,47.196 66.038,47.333 65.833 C 47.471 65.628,47.902 65.138,48.292 64.743 C 48.681 64.349,49.000 63.976,49.000 63.915 C 49.000 63.854,49.413 63.382,49.917 62.865 C 50.421 62.349,50.833 61.831,50.833 61.713 C 50.833 61.542,47.830 61.500,35.429 61.500 L 20.026 61.500 19.513 62.013 M73.444 61.611 C 73.383 61.672,73.333 61.930,73.333 62.185 C 73.333 62.439,73.265 62.689,73.182 62.740 C 73.099 62.792,72.980 63.209,72.917 63.667 C 72.854 64.125,72.739 64.538,72.663 64.586 C 72.586 64.633,72.472 65.083,72.409 65.586 C 72.346 66.089,72.236 66.500,72.163 66.500 C 72.091 66.500,71.980 66.875,71.917 67.333 C 71.854 67.791,71.739 68.205,71.663 68.252 C 71.586 68.300,71.472 68.750,71.409 69.253 C 71.346 69.755,71.234 70.167,71.159 70.167 C 71.085 70.167,70.972 70.579,70.909 71.083 C 70.846 71.587,70.738 72.000,70.669 72.000 C 70.600 72.000,70.494 72.372,70.433 72.826 C 70.373 73.281,70.256 73.695,70.173 73.746 C 70.091 73.797,69.972 74.250,69.909 74.753 C 69.846 75.255,69.734 75.667,69.659 75.667 C 69.585 75.667,69.472 76.079,69.409 76.583 C 69.346 77.087,69.237 77.500,69.167 77.500 C 69.096 77.500,68.987 77.911,68.924 78.414 C 68.861 78.917,68.742 79.370,68.660 79.421 C 68.577 79.472,68.460 79.886,68.400 80.340 C 68.340 80.795,68.235 81.167,68.167 81.167 C 68.099 81.167,67.991 81.559,67.927 82.038 C 67.864 82.516,67.744 82.990,67.661 83.090 C 67.578 83.190,67.460 83.698,67.399 84.219 L 67.287 85.167 79.555 85.167 C 93.412 85.167,92.038 85.313,92.267 83.813 C 92.329 83.411,92.437 83.008,92.507 82.917 C 92.578 82.825,92.689 82.375,92.755 81.917 C 92.821 81.458,92.934 81.008,93.005 80.917 C 93.077 80.825,93.189 80.393,93.254 79.956 C 93.319 79.520,93.433 79.125,93.508 79.079 C 93.582 79.033,93.695 78.583,93.758 78.081 C 93.820 77.578,93.931 77.167,94.003 77.167 C 94.075 77.167,94.186 76.717,94.250 76.167 C 94.314 75.617,94.425 75.167,94.497 75.167 C 94.569 75.167,94.680 74.755,94.742 74.253 C 94.805 73.750,94.919 73.300,94.996 73.252 C 95.073 73.205,95.187 72.791,95.250 72.333 C 95.313 71.875,95.427 71.462,95.504 71.414 C 95.581 71.367,95.695 70.916,95.758 70.412 C 95.821 69.908,95.933 69.458,96.008 69.412 C 96.082 69.366,96.195 68.916,96.258 68.412 C 96.321 67.908,96.431 67.459,96.504 67.414 C 96.576 67.370,96.687 66.958,96.750 66.500 C 96.813 66.042,96.926 65.629,97.000 65.583 C 97.074 65.537,97.189 65.106,97.255 64.625 C 97.320 64.144,97.434 63.712,97.507 63.665 C 97.581 63.618,97.694 63.112,97.759 62.540 L 97.876 61.500 85.716 61.500 C 79.028 61.500,73.506 61.550,73.444 61.611 " stroke="none" fill="#040404" fill-rule="evenodd"></path><path id="path2" d="M231.500 1.898 C 231.500 1.933,231.721 1.995,231.991 2.034 C 232.261 2.074,232.444 2.045,232.398 1.970 C 232.315 1.836,231.500 1.771,231.500 1.898 M316.410 5.042 C 316.366 5.156,316.350 11.887,316.374 20.000 L 316.417 34.750 316.500 19.792 C 316.546 11.565,316.562 4.833,316.536 4.833 C 316.511 4.833,316.454 4.927,316.410 5.042 M320.415 14.375 L 320.417 23.917 323.792 23.922 L 327.167 23.927 323.835 23.877 L 320.503 23.826 320.458 14.330 L 320.413 4.833 320.415 14.375 M336.762 8.429 C 336.365 8.825,336.448 8.928,336.875 8.569 C 337.081 8.396,337.281 8.234,337.319 8.210 C 337.358 8.186,337.307 8.167,337.206 8.167 C 337.106 8.167,336.906 8.285,336.762 8.429 M336.592 12.545 C 336.637 12.662,336.840 12.859,337.045 12.984 C 337.399 13.200,337.398 13.190,337.013 12.772 C 336.561 12.282,336.472 12.234,336.592 12.545 M296.290 16.969 C 296.446 17.069,296.507 18.638,296.542 23.509 L 296.587 29.917 296.627 23.375 C 296.664 17.240,296.649 16.833,296.375 16.836 C 296.169 16.838,296.144 16.877,296.290 16.969 M303.125 17.282 C 302.965 17.323,302.833 17.430,302.833 17.518 C 302.833 17.610,302.992 17.596,303.208 17.483 C 303.833 17.158,303.810 17.102,303.125 17.282 M253.760 20.708 C 253.587 21.278,253.545 21.659,253.663 21.586 C 253.736 21.541,253.828 21.278,253.869 21.002 C 253.943 20.497,253.877 20.321,253.760 20.708 M259.512 20.948 C 259.549 21.381,259.810 21.748,259.822 21.385 C 259.828 21.184,259.758 20.973,259.667 20.917 C 259.575 20.860,259.505 20.874,259.512 20.948 M301.333 25.061 C 301.333 25.249,301.987 25.902,302.081 25.808 C 302.127 25.762,301.978 25.548,301.749 25.333 C 301.521 25.118,301.333 24.996,301.333 25.061 M252.260 25.875 C 252.087 26.445,252.045 26.825,252.163 26.752 C 252.236 26.707,252.328 26.445,252.369 26.169 C 252.443 25.664,252.377 25.487,252.260 25.875 M320.407 30.500 C 320.407 33.112,320.430 34.181,320.458 32.875 C 320.486 31.569,320.486 29.431,320.458 28.125 C 320.430 26.819,320.407 27.887,320.407 30.500 M222.798 28.333 C 222.757 28.608,222.786 28.833,222.862 28.833 C 222.938 28.833,223.000 28.608,223.000 28.333 C 223.000 28.058,222.971 27.833,222.936 27.833 C 222.900 27.833,222.838 28.058,222.798 28.333 M249.186 28.611 C 249.175 28.718,249.118 28.943,249.059 29.111 C 248.975 29.348,248.997 29.374,249.158 29.226 C 249.272 29.121,249.329 28.896,249.285 28.726 C 249.241 28.556,249.197 28.504,249.186 28.611 M287.000 29.962 C 287.000 30.247,287.074 30.526,287.164 30.582 C 287.267 30.645,287.289 30.477,287.224 30.133 C 287.083 29.396,287.000 29.333,287.000 29.962 M221.911 31.417 C 221.868 31.554,221.798 31.779,221.755 31.917 C 221.712 32.054,221.741 32.167,221.820 32.167 C 221.898 32.167,221.995 31.942,222.036 31.667 C 222.113 31.138,222.043 30.996,221.911 31.417 M311.166 33.251 C 310.951 33.479,310.826 33.667,310.888 33.667 C 311.049 33.667,311.708 32.986,311.626 32.903 C 311.588 32.866,311.381 33.022,311.166 33.251 M238.177 34.537 C 238.263 34.836,238.333 35.100,238.333 35.124 C 238.333 35.147,238.423 35.167,238.533 35.167 C 238.689 35.167,238.689 35.122,238.533 34.967 C 238.423 34.857,238.333 34.636,238.333 34.477 C 238.333 34.317,238.263 34.143,238.177 34.090 C 238.081 34.030,238.081 34.200,238.177 34.537 M245.750 34.766 C 245.750 34.986,245.806 35.167,245.875 35.167 C 245.944 35.167,246.000 35.021,246.000 34.843 C 246.000 34.665,245.944 34.485,245.875 34.442 C 245.806 34.400,245.750 34.546,245.750 34.766 M220.792 34.861 C 220.570 35.094,220.555 35.167,220.732 35.167 C 220.860 35.167,221.012 35.043,221.069 34.893 C 221.215 34.513,221.133 34.503,220.792 34.861 M267.376 43.167 C 267.450 43.443,269.437 43.629,269.684 43.384 C 269.758 43.310,269.324 43.276,268.720 43.307 C 267.938 43.347,267.577 43.299,267.465 43.140 C 267.339 42.961,267.321 42.967,267.376 43.167 M228.625 50.458 C 230.115 50.486,232.552 50.486,234.042 50.458 C 235.531 50.430,234.313 50.408,231.333 50.408 C 228.354 50.408,227.135 50.430,228.625 50.458 M353.647 50.964 C 353.592 51.295,353.616 51.450,353.709 51.358 C 353.793 51.274,353.834 51.028,353.800 50.811 C 353.747 50.477,353.724 50.501,353.647 50.964 M348.115 51.985 C 348.160 52.161,348.397 52.480,348.641 52.694 L 349.083 53.083 348.708 52.656 C 348.502 52.421,348.333 52.144,348.333 52.041 C 348.333 51.937,348.265 51.811,348.182 51.760 C 348.099 51.708,348.069 51.810,348.115 51.985 M184.761 56.750 C 185.333 57.500,185.445 57.501,184.960 56.752 C 184.753 56.432,184.523 56.170,184.450 56.169 C 184.376 56.168,184.517 56.429,184.761 56.750 M286.053 58.167 C 286.053 58.762,286.084 59.006,286.121 58.708 C 286.158 58.410,286.158 57.923,286.121 57.625 C 286.084 57.327,286.053 57.571,286.053 58.167 M348.744 66.250 C 348.744 71.108,348.766 73.072,348.792 70.613 C 348.818 68.155,348.818 64.180,348.792 61.780 C 348.766 59.380,348.744 61.392,348.744 66.250 M294.708 58.955 C 295.052 58.991,295.615 58.991,295.958 58.955 C 296.302 58.919,296.021 58.889,295.333 58.889 C 294.646 58.889,294.365 58.919,294.708 58.955 M314.044 58.953 C 314.297 58.991,314.672 58.990,314.877 58.951 C 315.082 58.911,314.875 58.880,314.417 58.881 C 313.958 58.882,313.791 58.915,314.044 58.953 M334.455 58.954 C 334.750 58.990,335.275 58.991,335.621 58.955 C 335.967 58.919,335.725 58.889,335.083 58.888 C 334.442 58.887,334.159 58.917,334.455 58.954 M338.500 59.704 C 338.500 59.746,338.695 59.999,338.933 60.266 C 339.221 60.589,339.307 60.635,339.192 60.403 C 339.026 60.072,338.500 59.540,338.500 59.704 M372.601 59.930 C 372.454 60.314,372.477 72.799,372.625 72.891 C 372.694 72.933,372.750 69.975,372.750 66.317 C 372.750 62.659,372.739 59.667,372.726 59.667 C 372.713 59.667,372.657 59.785,372.601 59.930 M392.003 61.014 C 392.004 61.327,392.074 61.692,392.158 61.825 C 392.257 61.981,392.277 61.804,392.216 61.325 C 392.098 60.404,391.999 60.260,392.003 61.014 M339.696 62.778 C 339.680 63.160,339.624 63.610,339.571 63.778 C 339.481 64.065,339.486 64.066,339.664 63.790 C 339.767 63.628,339.824 63.178,339.789 62.790 L 339.725 62.083 339.696 62.778 M228.542 62.458 C 229.985 62.486,232.348 62.486,233.792 62.458 C 235.235 62.430,234.054 62.408,231.167 62.408 C 228.279 62.408,227.098 62.430,228.542 62.458 M338.855 64.928 C 338.641 65.151,338.536 65.333,338.623 65.333 C 338.816 65.333,339.415 64.693,339.316 64.594 C 339.277 64.555,339.070 64.705,338.855 64.928 M365.344 64.763 C 365.564 65.028,365.833 65.078,365.833 64.853 C 365.833 64.772,365.679 64.665,365.490 64.616 C 365.209 64.542,365.183 64.569,365.344 64.763 M251.678 65.083 C 251.678 65.175,251.870 65.475,252.104 65.750 C 252.338 66.025,252.453 66.100,252.360 65.917 C 252.107 65.418,251.677 64.893,251.678 65.083 M342.143 65.661 C 341.927 65.841,341.809 65.991,341.882 65.994 C 341.955 65.998,342.175 65.850,342.372 65.667 C 342.833 65.237,342.658 65.233,342.143 65.661 M284.496 66.201 C 284.452 66.632,284.477 66.923,284.552 66.848 C 284.628 66.772,284.664 66.419,284.633 66.064 L 284.576 65.417 284.496 66.201 M367.433 66.208 C 367.528 66.430,368.500 67.250,368.500 67.109 C 368.500 67.011,367.505 66.000,367.409 66.000 C 367.373 66.000,367.384 66.094,367.433 66.208 M279.125 66.958 C 280.065 66.987,281.602 66.987,282.542 66.958 C 283.481 66.928,282.712 66.904,280.833 66.904 C 278.954 66.904,278.185 66.928,279.125 66.958 M378.467 66.958 C 379.412 66.988,380.912 66.987,381.801 66.957 C 382.689 66.928,381.917 66.903,380.083 66.903 C 378.250 66.904,377.523 66.928,378.467 66.958 M395.093 72.620 L 394.770 73.063 395.213 72.740 C 395.643 72.426,395.796 72.161,395.542 72.172 C 395.473 72.175,395.271 72.377,395.093 72.620 M273.500 73.000 C 273.500 73.275,273.562 73.500,273.638 73.500 C 273.714 73.500,273.743 73.275,273.702 73.000 C 273.662 72.725,273.600 72.500,273.564 72.500 C 273.529 72.500,273.500 72.725,273.500 73.000 M368.080 73.503 C 367.724 73.868,367.496 74.167,367.574 74.167 C 367.757 74.167,368.891 73.002,368.799 72.910 C 368.760 72.871,368.437 73.138,368.080 73.503 M385.529 74.342 C 385.513 74.759,385.410 75.190,385.300 75.300 C 385.144 75.456,385.146 75.500,385.305 75.500 C 385.601 75.500,385.697 75.141,385.623 74.311 L 385.558 73.583 385.529 74.342 M273.942 74.128 C 274.012 74.396,274.651 74.945,274.728 74.803 C 274.744 74.774,274.555 74.541,274.309 74.286 C 273.975 73.940,273.882 73.900,273.942 74.128 M397.838 74.258 C 397.077 74.796,397.339 74.788,398.131 74.250 C 398.468 74.021,398.670 73.837,398.580 73.842 C 398.490 73.846,398.156 74.034,397.838 74.258 M304.946 74.933 C 305.002 75.080,304.944 75.267,304.816 75.348 C 304.630 75.466,304.642 75.495,304.875 75.497 C 305.076 75.499,305.167 75.370,305.167 75.083 C 305.167 74.854,305.094 74.667,305.005 74.667 C 304.916 74.667,304.890 74.787,304.946 74.933 M344.780 74.933 C 344.836 75.080,344.777 75.267,344.649 75.348 C 344.463 75.466,344.475 75.495,344.708 75.497 C 344.909 75.499,345.000 75.370,345.000 75.083 C 345.000 74.854,344.927 74.667,344.839 74.667 C 344.750 74.667,344.723 74.787,344.780 74.933 " stroke="none" fill="#e81c18" fill-rule="evenodd"></path><path id="path3" d="" stroke="none" fill="#401c18" fill-rule="evenodd"></path><path id="path4" d="" stroke="none" fill="#042018" fill-rule="evenodd"></path></g></svg>